<?xml version="1.0" encoding="utf-8"?>
<!-- Generator: Adobe Illustrator 25.1.0, SVG Export Plug-In . SVG Version: 6.00 Build 0)  -->
<svg version="1.1" xmlns="http://www.w3.org/2000/svg" xmlns:xlink="http://www.w3.org/1999/xlink" x="0px" y="0px"
	 viewBox="0 0 309.5 186.2" style="enable-background:new 0 0 309.5 186.2;" xml:space="preserve">
<style type="text/css">
	.st0{display:none;}
	.st1{display:inline;}
	.st2{fill-rule:evenodd;clip-rule:evenodd;fill:#76B100;}
	.st3{fill:#76B100;}
	.st4{fill-rule:evenodd;clip-rule:evenodd;}
	.st5{fill:#FFFFFF;}
</style>
<g id="little_Endian">
	<g class="st0">
		<path class="st1" d="M57.2,150.8c-17,0-46.5-5.7-52.6-44.2c-4.5-28.8,11.4-68.6,28.9-89C41.7,8,49.9,2.9,57.2,2.9
			S72.7,8,80.9,17.6c17.4,20.4,33.4,60.2,28.9,89C103.7,145,74.2,150.8,57.2,150.8z M57.2,6.5c-6.1,0-13.6,4.8-21,13.4
			C19.3,39.8,4,79.1,8.2,106c5.7,35.8,33.1,41.1,49,41.1c15.9,0,43.4-5.3,49-41.1c4.2-26.9-11.1-66.2-28-86.1
			C70.8,11.3,63.4,6.5,57.2,6.5z"/>
	</g>
	<g>
		<path d="M24,38.1c3.8-7,8-13.2,12.2-18.2c7.4-8.6,14.8-13.4,21-13.4c6.1,0,13.6,4.8,21,13.4c4.3,5,8.4,11.3,12.2,18.2h4.2
			c-4.2-7.9-8.8-15-13.6-20.6C72.7,8,64.5,2.9,57.2,2.9S41.7,8,33.5,17.6c-4.8,5.6-9.5,12.7-13.6,20.6H24z"/>
		<path d="M100.5,50.8h-4c7.7,18.3,12.3,39,9.7,55.2c-5.7,35.8-33.1,41.1-49,41.1c-15.9,0-43.3-5.3-49-41.1
			c-2.6-16.2,2-36.9,9.7-55.2h-4C6.4,69.1,2,89.7,4.6,106.6c6.1,38.4,35.5,44.2,52.6,44.2c17,0,46.5-5.7,52.6-44.2
			C112.5,89.7,108.1,69.1,100.5,50.8z"/>
	</g>
	<path class="st2" d="M124.8,174.5c-2.1-13.5,7.2-68.7,2.6-71.5c-3.3-2-4.3-2.5-6.5-5.7c-1.7-2.4-2.6-4.7-3.1-7.1
		c-1.7-7.9,1.6-24.1,11.5-27.9c0.7-0.2,1.5-0.2,2.2,0c9.9,3.8,13.1,19.9,11.4,27.8c-0.5,2.3-1.4,4.6-3.1,7.1
		c-2.2,3.2-3.2,3.6-6.5,5.7c-4.6,2.8,4.8,58,2.6,71.5C134.3,184.3,126.7,186.8,124.8,174.5z"/>
	<g>
		<path class="st3" d="M130.3,58.1c-0.8,0-1.5-0.7-1.5-1.5v-3c0-0.8,0.7-1.5,1.5-1.5s1.5,0.7,1.5,1.5v3
			C131.8,57.5,131.2,58.1,130.3,58.1z"/>
		<path class="st3" d="M130.3,49.1c-0.8,0-1.5-0.7-1.5-1.5v-1.5h-1.5c-0.8,0-1.5-0.7-1.5-1.5s0.7-1.5,1.5-1.5h3
			c0.8,0,1.5,0.7,1.5,1.5v3C131.8,48.4,131.2,49.1,130.3,49.1z"/>
		<path class="st3" d="M121.6,46.1h-5.7c-0.8,0-1.5-0.7-1.5-1.5s0.7-1.5,1.5-1.5h5.7c0.8,0,1.5,0.7,1.5,1.5S122.4,46.1,121.6,46.1z
			 M110.1,46.1h-5.7c-0.8,0-1.5-0.7-1.5-1.5s0.7-1.5,1.5-1.5h5.7c0.8,0,1.5,0.7,1.5,1.5S111,46.1,110.1,46.1z M98.7,46.1h-5.7
			c-0.8,0-1.5-0.7-1.5-1.5s0.7-1.5,1.5-1.5h5.7c0.8,0,1.5,0.7,1.5,1.5S99.5,46.1,98.7,46.1z M87.2,46.1h-5.7c-0.8,0-1.5-0.7-1.5-1.5
			s0.7-1.5,1.5-1.5h5.7c0.8,0,1.5,0.7,1.5,1.5S88,46.1,87.2,46.1z M75.7,46.1H70c-0.8,0-1.5-0.7-1.5-1.5s0.7-1.5,1.5-1.5h5.7
			c0.8,0,1.5,0.7,1.5,1.5S76.5,46.1,75.7,46.1z M64.2,46.1h-5.7c-0.8,0-1.5-0.7-1.5-1.5s0.7-1.5,1.5-1.5h5.7c0.8,0,1.5,0.7,1.5,1.5
			S65.1,46.1,64.2,46.1z M52.8,46.1H47c-0.8,0-1.5-0.7-1.5-1.5s0.7-1.5,1.5-1.5h5.7c0.8,0,1.5,0.7,1.5,1.5S53.6,46.1,52.8,46.1z
			 M41.3,46.1h-5.7c-0.8,0-1.5-0.7-1.5-1.5s0.7-1.5,1.5-1.5h5.7c0.8,0,1.5,0.7,1.5,1.5S42.1,46.1,41.3,46.1z M29.8,46.1h-5.7
			c-0.8,0-1.5-0.7-1.5-1.5s0.7-1.5,1.5-1.5h5.7c0.8,0,1.5,0.7,1.5,1.5S30.6,46.1,29.8,46.1z M18.3,46.1h-5.7c-0.8,0-1.5-0.7-1.5-1.5
			s0.7-1.5,1.5-1.5h5.7c0.8,0,1.5,0.7,1.5,1.5S19.2,46.1,18.3,46.1z"/>
		<path class="st3" d="M6.9,46.1h-3c-0.8,0-1.5-0.7-1.5-1.5s0.7-1.5,1.5-1.5h3c0.8,0,1.5,0.7,1.5,1.5S7.7,46.1,6.9,46.1z"/>
	</g>
	<g>
		<path class="st3" d="M32.9,57.9c0,2.7-1.9,3.9-3.6,3.9c-2,0-3.5-1.4-3.5-3.7c0-2.4,1.6-3.9,3.6-3.9C31.5,54.2,32.9,55.7,32.9,57.9
			z M27.2,58c0,1.6,0.9,2.8,2.2,2.8c1.3,0,2.2-1.2,2.2-2.8c0-1.2-0.6-2.8-2.2-2.8C27.8,55.2,27.2,56.6,27.2,58z"/>
		<path class="st3" d="M34.6,56.7c0-0.9,0-1.7-0.1-2.4h1.2l0.1,1.2h0c0.5-0.9,1.4-1.4,2.6-1.4c1.8,0,3.1,1.5,3.1,3.7
			c0,2.6-1.6,3.9-3.3,3.9c-1,0-1.8-0.4-2.2-1.1h0v3.9h-1.3V56.7z M35.9,58.7c0,0.2,0,0.4,0.1,0.5c0.2,0.9,1,1.5,2,1.5
			c1.4,0,2.2-1.1,2.2-2.8c0-1.5-0.8-2.7-2.2-2.7c-0.9,0-1.7,0.6-2,1.6c0,0.2-0.1,0.4-0.1,0.5V58.7z"/>
		<path class="st3" d="M43.9,58.2c0,1.8,1.2,2.5,2.5,2.5c0.9,0,1.5-0.2,2-0.4l0.2,0.9c-0.5,0.2-1.3,0.5-2.4,0.5
			c-2.2,0-3.6-1.5-3.6-3.7c0-2.2,1.3-3.9,3.4-3.9c2.4,0,3,2.1,3,3.4c0,0.3,0,0.5,0,0.6H43.9z M47.7,57.3c0-0.8-0.3-2.1-1.8-2.1
			c-1.3,0-1.9,1.2-2,2.1H47.7z"/>
		<path class="st3" d="M50.6,56.3c0-0.8,0-1.4-0.1-2h1.2l0.1,1.2h0c0.4-0.7,1.2-1.4,2.4-1.4c1,0,2.6,0.6,2.6,3.1v4.3h-1.3v-4.2
			c0-1.2-0.4-2.1-1.7-2.1c-0.9,0-1.5,0.6-1.8,1.4C52,56.8,52,57,52,57.3v4.4h-1.3V56.3z"/>
		<path class="st3" d="M62.2,51h1.3v4.5h0c0.2-0.4,0.5-0.7,0.9-0.9c0.4-0.2,0.9-0.4,1.4-0.4c1,0,2.5,0.6,2.5,3.1v4.3H67v-4.2
			c0-1.2-0.4-2.2-1.7-2.2c-0.9,0-1.5,0.6-1.8,1.3c-0.1,0.2-0.1,0.4-0.1,0.6v4.4h-1.3V51z"/>
		<path class="st3" d="M71.2,58.2c0,1.8,1.2,2.5,2.5,2.5c0.9,0,1.5-0.2,2-0.4l0.2,0.9c-0.5,0.2-1.3,0.5-2.4,0.5
			c-2.2,0-3.6-1.5-3.6-3.7c0-2.2,1.3-3.9,3.4-3.9c2.4,0,3,2.1,3,3.4c0,0.3,0,0.5,0,0.6H71.2z M75.1,57.3c0-0.8-0.3-2.1-1.8-2.1
			c-1.3,0-1.9,1.2-2,2.1H75.1z"/>
		<path class="st3" d="M78,56.6c0-0.9,0-1.6-0.1-2.3h1.2l0,1.4h0.1c0.3-1,1.1-1.6,2-1.6c0.1,0,0.3,0,0.4,0v1.2c-0.1,0-0.3,0-0.4,0
			c-0.9,0-1.6,0.7-1.8,1.7c0,0.2-0.1,0.4-0.1,0.6v3.9H78V56.6z"/>
		<path class="st3" d="M83.5,58.2c0,1.8,1.2,2.5,2.5,2.5c0.9,0,1.5-0.2,2-0.4l0.2,0.9c-0.5,0.2-1.3,0.5-2.4,0.5
			c-2.2,0-3.6-1.5-3.6-3.7c0-2.2,1.3-3.9,3.4-3.9c2.4,0,3,2.1,3,3.4c0,0.3,0,0.5,0,0.6H83.5z M87.4,57.3c0-0.8-0.3-2.1-1.8-2.1
			c-1.3,0-1.9,1.2-2,2.1H87.4z"/>
	</g>
	<path class="st4" d="M103.6,182.8H10.9c-3.9,0-7-3.2-7-7v-6.6c0-3.8,3.2-7,7-7h92.7c3.9,0,7,3.2,7,7v6.6
		C110.6,179.7,107.4,182.8,103.6,182.8z"/>
	<g>
		<path class="st5" d="M18.2,167.2h1.3v9h4.3v1.1h-5.6V167.2z"/>
		<path class="st5" d="M26.7,168c0,0.5-0.3,0.8-0.8,0.8c-0.5,0-0.8-0.4-0.8-0.8c0-0.5,0.3-0.8,0.8-0.8
			C26.4,167.2,26.7,167.6,26.7,168z M25.3,177.3v-7.3h1.3v7.3H25.3z"/>
		<path class="st5" d="M30.4,168v2.1h1.9v1h-1.9v3.9c0,0.9,0.3,1.4,1,1.4c0.3,0,0.6,0,0.8-0.1l0.1,1c-0.3,0.1-0.7,0.2-1.2,0.2
			c-0.6,0-1.1-0.2-1.4-0.6c-0.4-0.4-0.5-1-0.5-1.9v-4H28v-1h1.1v-1.7L30.4,168z"/>
		<path class="st5" d="M35.3,168v2.1h1.9v1h-1.9v3.9c0,0.9,0.3,1.4,1,1.4c0.3,0,0.6,0,0.8-0.1l0.1,1c-0.3,0.1-0.7,0.2-1.2,0.2
			c-0.6,0-1.1-0.2-1.4-0.6c-0.4-0.4-0.5-1-0.5-1.9v-4h-1.1v-1h1.1v-1.7L35.3,168z"/>
		<path class="st5" d="M38.7,166.7H40v10.6h-1.3V166.7z"/>
		<path class="st5" d="M43,174c0,1.8,1.2,2.5,2.5,2.5c0.9,0,1.5-0.2,2-0.4l0.2,0.9c-0.5,0.2-1.3,0.5-2.4,0.5c-2.2,0-3.6-1.5-3.6-3.7
			c0-2.2,1.3-3.9,3.4-3.9c2.4,0,3,2.1,3,3.4c0,0.3,0,0.5,0,0.6H43z M46.9,173c0-0.8-0.3-2.1-1.8-2.1c-1.3,0-1.9,1.2-2,2.1H46.9z"/>
		<path class="st5" d="M53.2,172.8v1h-3.7v-1H53.2z"/>
		<path class="st5" d="M55.8,174c0,1.8,1.2,2.5,2.5,2.5c0.9,0,1.5-0.2,2-0.4l0.2,0.9c-0.5,0.2-1.3,0.5-2.4,0.5
			c-2.2,0-3.6-1.5-3.6-3.7c0-2.2,1.3-3.9,3.4-3.9c2.4,0,3,2.1,3,3.4c0,0.3,0,0.5,0,0.6H55.8z M59.7,173c0-0.8-0.3-2.1-1.8-2.1
			c-1.3,0-1.9,1.2-2,2.1H59.7z"/>
		<path class="st5" d="M62.6,172.1c0-0.8,0-1.4-0.1-2h1.2l0.1,1.2h0c0.4-0.7,1.2-1.4,2.4-1.4c1,0,2.6,0.6,2.6,3.1v4.3h-1.3v-4.2
			c0-1.2-0.4-2.1-1.7-2.1c-0.9,0-1.5,0.6-1.8,1.4c-0.1,0.2-0.1,0.4-0.1,0.6v4.4h-1.3V172.1z"/>
		<path class="st5" d="M77.2,166.7v8.8c0,0.6,0,1.4,0.1,1.9H76l-0.1-1.3h0c-0.4,0.8-1.3,1.4-2.5,1.4c-1.8,0-3.1-1.5-3.1-3.7
			c0-2.4,1.5-3.9,3.3-3.9c1.1,0,1.9,0.5,2.2,1.1h0v-4.3H77.2z M75.9,173c0-0.2,0-0.4-0.1-0.6c-0.2-0.8-0.9-1.5-1.9-1.5
			c-1.4,0-2.2,1.2-2.2,2.8c0,1.5,0.7,2.7,2.1,2.7c0.9,0,1.7-0.6,1.9-1.6c0-0.2,0.1-0.4,0.1-0.6V173z"/>
		<path class="st5" d="M80.8,168c0,0.5-0.3,0.8-0.8,0.8c-0.5,0-0.8-0.4-0.8-0.8c0-0.5,0.3-0.8,0.8-0.8
			C80.5,167.2,80.8,167.6,80.8,168z M79.4,177.3v-7.3h1.3v7.3H79.4z"/>
		<path class="st5" d="M86.9,177.3l-0.1-0.9h0c-0.4,0.6-1.2,1.1-2.2,1.1c-1.5,0-2.2-1-2.2-2.1c0-1.8,1.6-2.7,4.4-2.7v-0.1
			c0-0.6-0.2-1.7-1.6-1.7c-0.7,0-1.4,0.2-1.9,0.5l-0.3-0.9c0.6-0.4,1.5-0.6,2.4-0.6c2.2,0,2.8,1.5,2.8,3v2.7c0,0.6,0,1.2,0.1,1.7
			H86.9z M86.7,173.6c-1.4,0-3.1,0.2-3.1,1.6c0,0.9,0.6,1.3,1.2,1.3c0.9,0,1.5-0.6,1.8-1.2c0-0.1,0.1-0.3,0.1-0.4V173.6z"/>
		<path class="st5" d="M90.1,172.1c0-0.8,0-1.4-0.1-2h1.2l0.1,1.2h0c0.4-0.7,1.2-1.4,2.4-1.4c1,0,2.6,0.6,2.6,3.1v4.3H95v-4.2
			c0-1.2-0.4-2.1-1.7-2.1c-0.9,0-1.5,0.6-1.8,1.4c-0.1,0.2-0.1,0.4-0.1,0.6v4.4h-1.3V172.1z"/>
	</g>
</g>
<g id="big_endian">
	<g>
		<path d="M173.1,38.1c8.6-27.2,32.4-31.6,46.8-31.6c14.3,0,38.2,4.4,46.8,31.6h3.8c-8.9-30.4-35-35.2-50.6-35.2
			c-15.6,0-41.6,4.8-50.6,35.2H173.1z"/>
		<path d="M269.3,50.6c2.8,26.8-12.1,64-28.4,83.1c-7.4,8.6-14.8,13.4-21,13.4c-6.1,0-13.6-4.8-21-13.4
			c-16.4-19.1-31.2-56.4-28.4-83.1h-3.6c-2.8,28.4,12.6,65.9,29.3,85.5c8.2,9.6,16.4,14.7,23.7,14.7s15.5-5.1,23.7-14.7
			c16.7-19.6,32.1-57,29.3-85.5H269.3z"/>
	</g>
	<path class="st2" d="M287.5,174.5c-2.1-13.5,7.2-68.7,2.6-71.5c-3.3-2-4.3-2.5-6.5-5.7c-1.7-2.4-2.6-4.7-3.1-7.1
		c-1.7-7.9,1.6-24.1,11.5-27.9c0.7-0.2,1.5-0.2,2.2,0c9.9,3.8,13.1,19.9,11.4,27.8c-0.5,2.3-1.4,4.6-3.1,7.1
		c-2.2,3.2-3.2,3.6-6.5,5.7c-4.6,2.8,4.8,58,2.6,71.5C297,184.3,289.4,186.8,287.5,174.5z"/>
	<g>
		<path class="st3" d="M293.1,58.1c-0.8,0-1.5-0.7-1.5-1.5v-3c0-0.8,0.7-1.5,1.5-1.5s1.5,0.7,1.5,1.5v3
			C294.6,57.5,293.9,58.1,293.1,58.1z"/>
		<path class="st3" d="M293.1,49.1c-0.8,0-1.5-0.7-1.5-1.5v-1.5h-1.5c-0.8,0-1.5-0.7-1.5-1.5s0.7-1.5,1.5-1.5h3
			c0.8,0,1.5,0.7,1.5,1.5v3C294.6,48.4,293.9,49.1,293.1,49.1z"/>
		<path class="st3" d="M284.3,46.1h-5.7c-0.8,0-1.5-0.7-1.5-1.5s0.7-1.5,1.5-1.5h5.7c0.8,0,1.5,0.7,1.5,1.5S285.1,46.1,284.3,46.1z
			 M272.8,46.1h-5.7c-0.8,0-1.5-0.7-1.5-1.5s0.7-1.5,1.5-1.5h5.7c0.8,0,1.5,0.7,1.5,1.5S273.7,46.1,272.8,46.1z M261.4,46.1h-5.7
			c-0.8,0-1.5-0.7-1.5-1.5s0.7-1.5,1.5-1.5h5.7c0.8,0,1.5,0.7,1.5,1.5S262.2,46.1,261.4,46.1z M249.9,46.1h-5.7
			c-0.8,0-1.5-0.7-1.5-1.5s0.7-1.5,1.5-1.5h5.7c0.8,0,1.5,0.7,1.5,1.5S250.7,46.1,249.9,46.1z M238.4,46.1h-5.7
			c-0.8,0-1.5-0.7-1.5-1.5s0.7-1.5,1.5-1.5h5.7c0.8,0,1.5,0.7,1.5,1.5S239.2,46.1,238.4,46.1z M226.9,46.1h-5.7
			c-0.8,0-1.5-0.7-1.5-1.5s0.7-1.5,1.5-1.5h5.7c0.8,0,1.5,0.7,1.5,1.5S227.8,46.1,226.9,46.1z M215.5,46.1h-5.7
			c-0.8,0-1.5-0.7-1.5-1.5s0.7-1.5,1.5-1.5h5.7c0.8,0,1.5,0.7,1.5,1.5S216.3,46.1,215.5,46.1z M204,46.1h-5.7
			c-0.8,0-1.5-0.7-1.5-1.5s0.7-1.5,1.5-1.5h5.7c0.8,0,1.5,0.7,1.5,1.5S204.8,46.1,204,46.1z M192.5,46.1h-5.7
			c-0.8,0-1.5-0.7-1.5-1.5s0.7-1.5,1.5-1.5h5.7c0.8,0,1.5,0.7,1.5,1.5S193.3,46.1,192.5,46.1z M181,46.1h-5.7
			c-0.8,0-1.5-0.7-1.5-1.5s0.7-1.5,1.5-1.5h5.7c0.8,0,1.5,0.7,1.5,1.5S181.9,46.1,181,46.1z"/>
		<path class="st3" d="M169.6,46.1h-3c-0.8,0-1.5-0.7-1.5-1.5s0.7-1.5,1.5-1.5h3c0.8,0,1.5,0.7,1.5,1.5S170.4,46.1,169.6,46.1z"/>
	</g>
	<g>
		<path class="st3" d="M195.6,57.9c0,2.7-1.9,3.9-3.6,3.9c-2,0-3.5-1.4-3.5-3.7c0-2.4,1.6-3.9,3.6-3.9
			C194.2,54.2,195.6,55.7,195.6,57.9z M189.9,58c0,1.6,0.9,2.8,2.2,2.8c1.3,0,2.2-1.2,2.2-2.8c0-1.2-0.6-2.8-2.2-2.8
			S189.9,56.6,189.9,58z"/>
		<path class="st3" d="M197.3,56.7c0-0.9,0-1.7-0.1-2.4h1.2l0.1,1.2h0c0.5-0.9,1.4-1.4,2.6-1.4c1.8,0,3.1,1.5,3.1,3.7
			c0,2.6-1.6,3.9-3.3,3.9c-1,0-1.8-0.4-2.2-1.1h0v3.9h-1.3V56.7z M198.6,58.7c0,0.2,0,0.4,0.1,0.5c0.2,0.9,1,1.5,2,1.5
			c1.4,0,2.2-1.1,2.2-2.8c0-1.5-0.8-2.7-2.2-2.7c-0.9,0-1.7,0.6-2,1.6c0,0.2-0.1,0.4-0.1,0.5V58.7z"/>
		<path class="st3" d="M206.6,58.2c0,1.8,1.2,2.5,2.5,2.5c0.9,0,1.5-0.2,2-0.4l0.2,0.9c-0.5,0.2-1.3,0.5-2.4,0.5
			c-2.2,0-3.6-1.5-3.6-3.7c0-2.2,1.3-3.9,3.4-3.9c2.4,0,3,2.1,3,3.4c0,0.3,0,0.5,0,0.6H206.6z M210.4,57.3c0-0.8-0.3-2.1-1.8-2.1
			c-1.3,0-1.9,1.2-2,2.1H210.4z"/>
		<path class="st3" d="M213.4,56.3c0-0.8,0-1.4-0.1-2h1.2l0.1,1.2h0c0.4-0.7,1.2-1.4,2.4-1.4c1,0,2.6,0.6,2.6,3.1v4.3h-1.3v-4.2
			c0-1.2-0.4-2.1-1.7-2.1c-0.9,0-1.5,0.6-1.8,1.4c-0.1,0.2-0.1,0.4-0.1,0.6v4.4h-1.3V56.3z"/>
		<path class="st3" d="M224.9,51h1.3v4.5h0c0.2-0.4,0.5-0.7,0.9-0.9c0.4-0.2,0.9-0.4,1.4-0.4c1,0,2.5,0.6,2.5,3.1v4.3h-1.3v-4.2
			c0-1.2-0.4-2.2-1.7-2.2c-0.9,0-1.5,0.6-1.8,1.3c-0.1,0.2-0.1,0.4-0.1,0.6v4.4h-1.3V51z"/>
		<path class="st3" d="M233.9,58.2c0,1.8,1.2,2.5,2.5,2.5c0.9,0,1.5-0.2,2-0.4l0.2,0.9c-0.5,0.2-1.3,0.5-2.4,0.5
			c-2.2,0-3.6-1.5-3.6-3.7c0-2.2,1.3-3.9,3.4-3.9c2.4,0,3,2.1,3,3.4c0,0.3,0,0.5,0,0.6H233.9z M237.8,57.3c0-0.8-0.3-2.1-1.8-2.1
			c-1.3,0-1.9,1.2-2,2.1H237.8z"/>
		<path class="st3" d="M240.7,56.6c0-0.9,0-1.6-0.1-2.3h1.2l0,1.4h0.1c0.3-1,1.1-1.6,2-1.6c0.1,0,0.3,0,0.4,0v1.2
			c-0.1,0-0.3,0-0.5,0c-0.9,0-1.6,0.7-1.8,1.7c0,0.2-0.1,0.4-0.1,0.6v3.9h-1.3V56.6z"/>
		<path class="st3" d="M246.2,58.2c0,1.8,1.2,2.5,2.5,2.5c0.9,0,1.5-0.2,2-0.4l0.2,0.9c-0.5,0.2-1.3,0.5-2.4,0.5
			c-2.2,0-3.6-1.5-3.6-3.7c0-2.2,1.3-3.9,3.4-3.9c2.4,0,3,2.1,3,3.4c0,0.3,0,0.5,0,0.6H246.2z M250.1,57.3c0-0.8-0.3-2.1-1.8-2.1
			c-1.3,0-1.9,1.2-2,2.1H250.1z"/>
	</g>
	<path class="st4" d="M266.3,182.8h-92.7c-3.9,0-7-3.2-7-7v-6.6c0-3.8,3.1-7,7-7h92.7c3.9,0,7,3.2,7,7v6.6
		C273.3,179.7,270.1,182.8,266.3,182.8z"/>
	<g>
		<path class="st5" d="M186.9,167.4c0.6-0.1,1.5-0.2,2.4-0.2c1.3,0,2.1,0.2,2.8,0.7c0.5,0.4,0.8,1,0.8,1.8c0,1-0.6,1.8-1.7,2.2v0
			c1,0.2,2.1,1,2.1,2.5c0,0.9-0.3,1.5-0.9,2c-0.7,0.6-1.8,0.9-3.5,0.9c-0.9,0-1.6-0.1-2-0.1V167.4z M188.2,171.5h1.2
			c1.4,0,2.2-0.7,2.2-1.7c0-1.2-0.9-1.7-2.2-1.7c-0.6,0-0.9,0-1.2,0.1V171.5z M188.2,176.4c0.3,0,0.6,0.1,1.1,0.1
			c1.3,0,2.6-0.5,2.6-2c0-1.4-1.2-2-2.6-2h-1.1V176.4z"/>
		<path class="st5" d="M196.5,168c0,0.5-0.3,0.8-0.8,0.8c-0.5,0-0.8-0.4-0.8-0.8c0-0.5,0.3-0.8,0.8-0.8
			C196.2,167.2,196.5,167.6,196.5,168z M195,177.3v-7.3h1.3v7.3H195z"/>
		<path class="st5" d="M204.8,170.1c0,0.5-0.1,1.1-0.1,2v4.2c0,1.7-0.3,2.7-1,3.3c-0.7,0.7-1.7,0.9-2.6,0.9c-0.9,0-1.8-0.2-2.4-0.6
			l0.3-1c0.5,0.3,1.2,0.6,2.1,0.6c1.3,0,2.3-0.7,2.3-2.5v-0.8h0c-0.4,0.7-1.2,1.2-2.3,1.2c-1.8,0-3.1-1.5-3.1-3.5
			c0-2.5,1.6-3.9,3.3-3.9c1.3,0,2,0.7,2.3,1.3h0l0.1-1.1H204.8z M203.4,173c0-0.2,0-0.4-0.1-0.6c-0.2-0.8-0.9-1.4-1.8-1.4
			c-1.3,0-2.2,1.1-2.2,2.7c0,1.4,0.7,2.6,2.1,2.6c0.8,0,1.5-0.5,1.8-1.3c0.1-0.2,0.1-0.5,0.1-0.7V173z"/>
		<path class="st5" d="M210,172.8v1h-3.7v-1H210z"/>
		<path class="st5" d="M212.5,174c0,1.8,1.2,2.5,2.5,2.5c0.9,0,1.5-0.2,2-0.4l0.2,0.9c-0.5,0.2-1.3,0.5-2.4,0.5
			c-2.2,0-3.6-1.5-3.6-3.7c0-2.2,1.3-3.9,3.4-3.9c2.4,0,3,2.1,3,3.4c0,0.3,0,0.5,0,0.6H212.5z M216.4,173c0-0.8-0.3-2.1-1.8-2.1
			c-1.3,0-1.9,1.2-2,2.1H216.4z"/>
		<path class="st5" d="M219.3,172.1c0-0.8,0-1.4-0.1-2h1.2l0.1,1.2h0c0.4-0.7,1.2-1.4,2.4-1.4c1,0,2.6,0.6,2.6,3.1v4.3h-1.3v-4.2
			c0-1.2-0.4-2.1-1.7-2.1c-0.9,0-1.5,0.6-1.8,1.4c-0.1,0.2-0.1,0.4-0.1,0.6v4.4h-1.3V172.1z"/>
		<path class="st5" d="M233.9,166.7v8.8c0,0.6,0,1.4,0.1,1.9h-1.2l-0.1-1.3h0c-0.4,0.8-1.3,1.4-2.5,1.4c-1.8,0-3.1-1.5-3.1-3.7
			c0-2.4,1.5-3.9,3.3-3.9c1.1,0,1.9,0.5,2.2,1.1h0v-4.3H233.9z M232.6,173c0-0.2,0-0.4-0.1-0.6c-0.2-0.8-0.9-1.5-1.9-1.5
			c-1.4,0-2.2,1.2-2.2,2.8c0,1.5,0.7,2.7,2.1,2.7c0.9,0,1.7-0.6,1.9-1.6c0-0.2,0.1-0.4,0.1-0.6V173z"/>
		<path class="st5" d="M237.6,168c0,0.5-0.3,0.8-0.8,0.8c-0.5,0-0.8-0.4-0.8-0.8c0-0.5,0.3-0.8,0.8-0.8
			C237.2,167.2,237.6,167.6,237.6,168z M236.1,177.3v-7.3h1.3v7.3H236.1z"/>
		<path class="st5" d="M243.6,177.3l-0.1-0.9h0c-0.4,0.6-1.2,1.1-2.2,1.1c-1.5,0-2.2-1-2.2-2.1c0-1.8,1.6-2.7,4.4-2.7v-0.1
			c0-0.6-0.2-1.7-1.6-1.7c-0.7,0-1.4,0.2-1.9,0.5l-0.3-0.9c0.6-0.4,1.5-0.6,2.4-0.6c2.2,0,2.8,1.5,2.8,3v2.7c0,0.6,0,1.2,0.1,1.7
			H243.6z M243.4,173.6c-1.4,0-3.1,0.2-3.1,1.6c0,0.9,0.6,1.3,1.2,1.3c0.9,0,1.5-0.6,1.8-1.2c0-0.1,0.1-0.3,0.1-0.4V173.6z"/>
		<path class="st5" d="M246.8,172.1c0-0.8,0-1.4-0.1-2h1.2l0.1,1.2h0c0.4-0.7,1.2-1.4,2.4-1.4c1,0,2.6,0.6,2.6,3.1v4.3h-1.3v-4.2
			c0-1.2-0.4-2.1-1.7-2.1c-0.9,0-1.5,0.6-1.8,1.4c-0.1,0.2-0.1,0.4-0.1,0.6v4.4h-1.3V172.1z"/>
	</g>
</g>
</svg>
